<svg width="24" height="21" viewBox="0 0 24 21" fill="none" xmlns="http://www.w3.org/2000/svg">
<path d="M22 17V20H2V17C2 16.45 2.45 16 3 16H21C21.55 16 22 16.45 22 17Z" fill="#292D32" stroke="#292D32" stroke-width="1.5" stroke-miterlimit="10" stroke-linecap="round" stroke-linejoin="round"/>
<path d="M7 9H5V16H7V9Z" fill="#292D32"/>
<path d="M11 9H9V16H11V9Z" fill="#292D32"/>
<path d="M15 9H13V16H15V9Z" fill="#292D32"/>
<path d="M19 9H17V16H19V9Z" fill="#292D32"/>
<path d="M23 20.75H1C0.59 20.75 0.25 20.41 0.25 20C0.25 19.59 0.59 19.25 1 19.25H23C23.41 19.25 23.75 19.59 23.75 20C23.75 20.41 23.41 20.75 23 20.75Z" fill="#292D32"/>
<path d="M21.37 3.74984L12.37 0.149844C12.17 0.0698438 11.83 0.0698438 11.63 0.149844L2.63 3.74984C2.28 3.88984 2 4.29984 2 4.67984V7.99984C2 8.54984 2.45 8.99984 3 8.99984H21C21.55 8.99984 22 8.54984 22 7.99984V4.67984C22 4.29984 21.72 3.88984 21.37 3.74984ZM12 6.49984C11.17 6.49984 10.5 5.82984 10.5 4.99984C10.5 4.16984 11.17 3.49984 12 3.49984C12.83 3.49984 13.5 4.16984 13.5 4.99984C13.5 5.82984 12.83 6.49984 12 6.49984Z" fill="#292D32"/>
</svg>
