<svg width="18" height="20" viewBox="0 0 18 20" fill="none" xmlns="http://www.w3.org/2000/svg">
<path d="M17.7091 6.11949V15.5295C17.7091 17.9895 15.6991 19.9995 13.2391 19.9995H4.75906C2.29906 19.9995 0.289062 17.9895 0.289062 15.5295V6.11949C0.289062 4.40949 1.24906 2.91949 2.65906 2.16949C3.14906 1.90949 3.75906 2.25949 3.75906 2.81949C3.75906 4.40949 5.05906 5.70949 6.64906 5.70949H11.3491C12.9391 5.70949 14.2391 4.40949 14.2391 2.81949C14.2391 2.25949 14.8391 1.90949 15.3391 2.16949C16.7491 2.91949 17.7091 4.40949 17.7091 6.11949Z" fill="#292D32"/>
<path d="M11.3498 0H6.64977C5.60977 0 4.75977 0.84 4.75977 1.88V2.82C4.75977 3.86 5.59977 4.7 6.63977 4.7H11.3498C12.3898 4.7 13.2298 3.86 13.2298 2.82V1.88C13.2398 0.84 12.3898 0 11.3498 0Z" fill="#292D32"/>
</svg>
