<svg width="29" height="31" viewBox="0 0 29 31" fill="none" xmlns="http://www.w3.org/2000/svg">
<path d="M25.2529 10.4315C22.6445 11.5183 19.9265 12.2055 17.1415 12.4851L18.4544 10.211L22.9316 10.4798C23.4288 10.5096 23.8562 10.1307 23.8861 9.63339C23.9159 9.13612 23.537 8.70878 23.0397 8.67889L19.463 8.4642L20.2586 7.08627L24.7357 7.35502C25.233 7.38485 25.6604 7.00593 25.6902 6.50865C25.72 6.01137 25.3411 5.58403 24.8438 5.55415L21.2671 5.33945L22.2663 3.60876C23.2627 1.88293 25.4694 1.29166 27.1952 2.28802C28.9211 3.28444 29.5123 5.49118 28.5159 7.21701L27.1058 9.65943L25.2529 10.4315Z" fill="#1890FF"/>
<path d="M14.2664 12.6288C13.0694 12.6288 11.882 12.5549 10.7071 12.4082C10.6755 12.1855 10.6582 11.9582 10.6582 11.7268C10.6582 9.06972 12.8121 6.91577 15.4692 6.91577C16.354 6.91577 17.1824 7.15572 17.8948 7.57253L14.9806 12.6201C14.7429 12.6259 14.5049 12.6288 14.2664 12.6288Z" fill="#1890FF"/>
<path d="M9.49066 8.8965C8.8241 7.13375 8.70202 5.8073 8.70027 5.78697C8.658 5.2906 8.22122 4.92364 7.72502 4.96453C7.22865 5.00675 6.86042 5.44341 6.90264 5.93978C6.91365 6.06932 7.16418 8.79192 8.85519 11.7883C8.85621 11.8984 8.86072 12.0076 8.86709 12.1163C6.96116 11.7497 5.09383 11.1874 3.2796 10.4315L2.19381 9.9791C2.33646 9.6294 2.5354 9.30345 2.78467 9.01594C1.56009 8.47295 0.735299 7.25361 0.735299 5.86341C0.735299 3.95669 2.28649 2.4055 4.19321 2.4055C4.49534 2.4055 4.7944 2.44603 5.08715 2.52632C5.49603 1.05319 6.83577 0 8.40283 0C9.92906 0 11.2504 0.994975 11.6956 2.42126C11.8019 2.41073 11.9067 2.4055 12.0111 2.4055C13.6599 2.4055 15.0421 3.56591 15.3859 5.11277C12.7858 5.14494 10.5422 6.68471 9.49066 8.8965Z" fill="#1890FF"/>
<path d="M2.58562 12.097C6.30591 13.6472 10.2358 14.4331 14.2662 14.4331C18.2965 14.4331 22.2265 13.6472 25.9468 12.097C26.5796 11.8333 27.2637 12.3441 27.1906 13.0258C26.8901 15.8306 25.8023 26.0921 25.5589 28.3719C25.4118 29.7507 24.2549 30.7905 22.8681 30.7905H5.66436C4.27747 30.7905 3.12066 29.7507 2.97345 28.3718C2.73007 26.0921 1.6423 15.8305 1.3418 13.0257C1.26873 12.3441 1.9528 11.8333 2.58562 12.097ZM7.35038 24.7768C7.35038 25.275 7.75426 25.6789 8.25244 25.6789H20.2799C20.7781 25.6789 21.182 25.275 21.182 24.7768V19.9658C21.182 19.4676 20.7781 19.0637 20.2799 19.0637H8.25244C7.75426 19.0637 7.35038 19.4676 7.35038 19.9658V24.7768Z" fill="#1890FF"/>
<path d="M19.3782 20.8678H9.15481V23.8747H19.3782V20.8678Z" fill="#1890FF"/>
</svg>
