<svg width="33" height="33" viewBox="0 0 33 33" fill="none" xmlns="http://www.w3.org/2000/svg">
<path d="M4.11196 24.6726C3.98138 24.8034 3.89438 24.9775 3.89438 25.1953L3.8508 29.55H5.33046L5.37389 27.0242C8.24621 30.2468 12.3369 31.9887 16.5147 31.9887C18.6907 31.9887 20.8665 31.5096 22.9119 30.5515C29.0916 27.5468 32.4861 20.5356 30.9194 13.8292C30.8323 13.4373 30.4407 13.176 30.0489 13.2631C29.6573 13.3501 29.3962 13.7422 29.4832 14.1341C30.8323 20.1872 27.7861 26.5453 22.2156 29.2451C16.8193 31.8581 10.2045 30.4645 6.33138 25.9355L9.02954 25.9791V24.4985L4.63413 24.4549C4.46013 24.4549 4.24254 24.4985 4.11196 24.6726Z" fill="#FFC107"/>
<path d="M1.97955 20.5792C2.06655 20.9275 2.37113 21.1453 2.67587 21.1453C2.7193 21.1453 2.8063 21.1453 2.84988 21.1453C3.24147 21.0583 3.50263 20.6662 3.41563 20.2743C1.97955 14.2213 5.02587 7.90673 10.5962 5.20672C15.9925 2.59387 22.5203 3.98745 26.437 8.42936H23.1295V9.90994H27.5249C27.9165 9.90994 28.2647 9.56162 28.2647 9.16957V4.77125H26.785V6.68746C22.3898 2.33256 15.6008 1.11329 9.94345 3.85687C3.76379 6.81804 0.41288 13.8728 1.97955 20.5792Z" fill="#FFC107"/>
<path d="M16.2535 25.979C20.9971 25.979 24.8703 22.1034 24.8703 17.3566C24.8703 12.6099 20.9971 8.73407 16.2535 8.73407C11.5101 8.73407 7.63688 12.6099 7.63688 17.3566C7.63688 22.1034 11.5101 25.979 16.2535 25.979ZM17.6462 18.3147L15.5574 17.8792L14.5564 17.6615L14.3823 17.6179L14.2953 17.5743C13.2944 17.0518 12.772 16.3986 12.772 15.6582V15.5711C12.772 14.2647 13.9907 13.2195 15.5138 13.2195H15.6878V12.218H17.1675V13.2195C18.6471 13.2631 19.8656 14.3082 19.8656 15.5711H18.386C18.386 15.0922 17.8202 14.7001 17.124 14.7001H15.5138C14.8175 14.7001 14.2517 15.0922 14.2517 15.5711V15.6582C14.2517 15.7018 14.3823 15.9196 14.9045 16.2243L16.5147 16.5292L18.0814 16.8341L18.2119 16.8775L18.2989 16.9211C19.6046 17.5743 19.8656 18.3582 19.8656 18.8807V18.9679C19.8656 20.2743 18.6907 21.3194 17.211 21.3194V22.4081H15.7314V21.363H15.5574C14.0341 21.363 12.8156 20.3179 12.8156 19.0115H14.2953C14.2953 19.4905 14.861 19.8824 15.5574 19.8824H17.1675C17.8638 19.8824 18.4295 19.4905 18.4295 19.0115V18.9243C18.2989 18.8807 18.2119 18.6196 17.6462 18.3147Z" fill="#FFC107"/>
</svg>
