<svg width="18" height="20" viewBox="0 0 18 20" fill="none" xmlns="http://www.w3.org/2000/svg">
<path d="M11.3498 0H6.64977C5.60977 0 4.75977 0.84 4.75977 1.88V2.82C4.75977 3.86 5.59977 4.7 6.63977 4.7H11.3498C12.3898 4.7 13.2298 3.86 13.2298 2.82V1.88C13.2398 0.84 12.3898 0 11.3498 0Z" fill="#292D32"/>
<path d="M14.2391 2.81949C14.2391 4.40949 12.9391 5.70949 11.3491 5.70949H6.64906C5.05906 5.70949 3.75906 4.40949 3.75906 2.81949C3.75906 2.25949 3.15906 1.90949 2.65906 2.16949C1.24906 2.91949 0.289062 4.40949 0.289062 6.11949V15.5295C0.289062 17.9895 2.29906 19.9995 4.75906 19.9995H13.2391C15.6991 19.9995 17.7091 17.9895 17.7091 15.5295V6.11949C17.7091 4.40949 16.7491 2.91949 15.3391 2.16949C14.8391 1.90949 14.2391 2.25949 14.2391 2.81949ZM12.3391 10.7295L8.33906 14.7295C8.18906 14.8795 7.99906 14.9495 7.80906 14.9495C7.61906 14.9495 7.42906 14.8795 7.27906 14.7295L5.77906 13.2295C5.48906 12.9395 5.48906 12.4595 5.77906 12.1695C6.06906 11.8795 6.54906 11.8795 6.83906 12.1695L7.80906 13.1395L11.2791 9.66949C11.5691 9.37949 12.0491 9.37949 12.3391 9.66949C12.6291 9.95949 12.6291 10.4395 12.3391 10.7295Z" fill="#292D32"/>
</svg>
