<svg width="31" height="31" viewBox="0 0 31 31" fill="none" xmlns="http://www.w3.org/2000/svg">
<g clip-path="url(#clip0_6_5887)">
<path fill-rule="evenodd" clip-rule="evenodd" d="M21.0008 14.8556L27.3096 11.0054L30.1364 16.5713C30.8192 19.6122 27.0775 20.7283 24.073 20.5467L21.0005 14.8556H21.0008Z" fill="#28B446"/>
<path fill-rule="evenodd" clip-rule="evenodd" d="M19.5668 18.831L16.2484 24.8152L19.5668 30.8831L19.6488 28.4558H22.6804C23.7865 28.5536 25.2204 27.8143 25.7529 26.7401L29.6449 19.4586C28.3613 20.7558 26.7107 21.0906 24.8109 21.0906H19.6899L19.5671 18.8309L19.5668 18.831Z" fill="#28B446"/>
<path fill-rule="evenodd" clip-rule="evenodd" d="M12.1527 11.453L5.7953 7.68731L9.18702 2.46127C11.4584 0.375471 14.2299 3.17556 15.5327 5.94659L12.1529 11.4532L12.1527 11.453Z" fill="#28B446"/>
<path fill-rule="evenodd" clip-rule="evenodd" d="M16.2517 10.804L22.9843 10.8629L26.5673 4.95416L24.45 6.059L22.9785 3.35147C22.5251 2.31625 21.1963 1.39461 20.0185 1.44022L11.8969 1.4988C13.6303 2.01545 14.718 3.32717 15.6401 5.02393L18.1258 9.59739L16.2513 10.804H16.2517Z" fill="#28B446"/>
<path fill-rule="evenodd" clip-rule="evenodd" d="M0.930276 11.1412L2.9001 12.68L1.0461 16.2309C0.119091 17.8683 1.71165 19.4634 2.7263 20.0183C3.72515 20.5649 5.27553 20.6299 6.72394 20.6102L9.33115 16.3492L11.301 17.4144L7.88273 11.082L0.930425 11.1412H0.930276Z" fill="#28B446"/>
<path fill-rule="evenodd" clip-rule="evenodd" d="M1.21991 19.3675L5.44919 27.1796C6.29898 28.2646 7.90182 28.5211 9.5628 28.4816H14.024V21.0841L5.56516 21.0249C4.25194 21.1039 2.53313 20.8277 1.21991 19.3678V19.3675Z" fill="#28B446"/>
</g>
<defs>
<clipPath id="clip0_6_5887">
<rect width="30.9091" height="30.9091" fill="white"/>
</clipPath>
</defs>
</svg>
