<?xml version="1.0"?><svg fill="#000000" xmlns="http://www.w3.org/2000/svg"  viewBox="0 -25 50 100" width="24px" height="24px">    <path d="M 11.929688 4 C 11.444688 4 11.027359 4.3481719 10.943359 4.8261719 L 3.890625 44.826172 C 3.782625 45.439172 4.254 46 4.875 46 L 8.71875 46 C 9.20375 46 9.619125 45.651828 9.703125 45.173828 L 16.757812 5.1738281 C 16.865813 4.5608281 16.394437 4 15.773438 4 L 11.929688 4 z M 21.927734 4 C 21.442734 4 21.027359 4.3481719 20.943359 4.8261719 L 13.890625 44.826172 C 13.783625 45.439172 14.254 46 14.875 46 L 18.84375 46 C 19.32875 46 19.744125 45.651828 19.828125 45.173828 L 22.681641 29 L 29.363281 29 L 33.445312 45.244141 C 33.557313 45.688141 33.958016 46 34.416016 46 L 38.400391 46 C 39.051391 46 39.530094 45.387859 39.371094 44.755859 L 35.410156 29 L 36.681641 29 C 39.995641 29 43.154281 26.314 43.738281 23 L 46.03125 10 C 46.61525 6.686 44.403844 4 41.089844 4 L 21.927734 4 z M 26.03125 10 L 37.03125 10 C 38.68825 10 39.793953 11.343 39.501953 13 L 38.267578 20 C 37.975578 21.657 36.395281 23 34.738281 23 L 23.738281 23 L 26.03125 10 z"/></svg>