<svg width="37" height="36" viewBox="0 0 37 36" fill="none" xmlns="http://www.w3.org/2000/svg">
<path d="M0.493735 13.3275C0.493735 12.7981 0.871657 12.5277 1.62768 12.5145L9.35778 12.4012L12.9677 19.0174C13.1433 19.4467 13.2323 19.7423 13.2323 19.9058C13.2323 20.0571 13.1397 20.2061 12.9575 20.3508C12.7751 20.4953 12.5951 20.5676 12.4193 20.5676C12.3938 20.5676 12.2684 20.5052 12.0414 20.3785L11.0584 19.8303L8.94185 23.1952H18.1462V32.6092H9.54657C7.95886 32.6092 6.69823 31.8098 5.76663 30.2087L0.493556 21.1916C0.191111 20.6624 0.039978 20.0328 0.039978 19.3013C0.039978 18.734 0.165417 18.2426 0.417901 17.8267L2.19456 14.9155L0.852565 14.1028C0.612393 13.9647 0.493556 13.7056 0.493556 13.3277L0.493735 13.3275ZM1.38198 13.6868L3.00751 14.6507L0.928399 18.2424C0.739438 18.5583 0.645047 18.9485 0.645047 19.4144C0.645047 19.8817 0.789399 20.354 1.07953 20.8322L5.72898 28.8475V28.4692C5.72898 27.5242 5.89242 26.7869 6.22021 26.2579L10.7942 19.0174L12.1551 19.679C12.2807 19.8059 12.3685 19.8681 12.4193 19.8681C12.4952 19.8435 12.533 19.8059 12.533 19.7547C12.533 19.7423 12.4574 19.5912 12.3062 19.3011L9.05516 13.0247L1.38216 13.1003C1.25547 13.1003 1.19319 13.1762 1.19319 13.3271C1.19319 13.4783 1.25547 13.5985 1.38216 13.6865L1.38198 13.6868ZM28.6358 5.27441L29.8454 4.61278C30.0721 4.48699 30.2479 4.42382 30.3746 4.42382C30.6014 4.42382 30.8283 4.51607 31.055 4.69843C31.2817 4.88079 31.3951 5.08527 31.3951 5.31206C31.3951 5.43893 31.313 5.69694 31.1495 6.08736L26.9728 12.7417L19.5071 12.099C18.7509 12.0233 18.373 11.8154 18.373 11.4752C18.373 11.1861 18.5055 10.9782 18.77 10.8512L19.8095 10.1521L17.9952 6.4089L13.2701 14.1786L5.25631 9.33913L9.75444 1.94805C10.5606 0.624789 11.707 -0.00472449 13.1945 0.0575488L24.1562 0.511306C25.0123 0.549312 25.6548 0.694914 26.0842 0.946148C26.4744 1.18632 26.8211 1.6076 27.1235 2.21267L28.6354 5.27513L28.6358 5.27441ZM13.0433 13.3275L17.6926 5.74744L16.2564 2.87412C15.5625 1.48859 14.4417 0.794658 12.892 0.794658C11.7447 0.794658 10.7874 1.42524 10.0192 2.68498L6.06925 9.15035L13.0433 13.328V13.3275ZM9.8681 32.0991H17.4845V23.8947H8.46918L6.76818 26.6169C6.49035 27.0581 6.3526 27.7265 6.3526 28.6207C6.3526 30.9401 7.5242 32.0987 9.86792 32.0987L9.8681 32.0991ZM19.6582 11.5885L26.6323 12.1366C29.3918 7.78872 30.7714 5.53921 30.7714 5.3879C30.7714 5.18662 30.6637 5.08545 30.4501 5.08545C30.2988 5.08545 30.1856 5.09883 30.1102 5.12328L28.371 6.0117L26.5566 2.42001C26.1275 1.58833 25.3661 1.14814 24.2698 1.09675L15.1597 0.699732C15.8269 1.05339 16.344 1.61385 16.7096 2.38236L20.5841 10.3789L19.2801 11.1536C19.1411 11.2293 19.0721 11.2994 19.0721 11.3615C19.0721 11.3872 19.2666 11.4628 19.658 11.5886L19.6582 11.5885ZM24.5719 22.893H28.6356L23.7973 15.1425L31.7351 10.1523L36.2709 17.392C36.7249 18.1361 36.9517 18.8609 36.9517 19.5661C36.9517 20.0198 36.6681 20.7948 36.1011 21.8914L31.1492 31.4567C30.5821 32.5664 29.7064 33.1202 28.5219 33.1202H25.1203V34.6703C25.1203 35.2375 24.8367 35.5211 24.2697 35.5211C24.0052 35.5211 23.7217 35.2886 23.4191 34.8216L19.1099 28.3186L22.9087 21.7777C23.1734 21.3119 23.4945 21.0785 23.8726 21.0785C24.3387 21.0785 24.5719 21.2551 24.5719 21.6077V22.8931V22.893ZM24.5343 32.4199H28.6356C29.4794 32.4199 30.1532 31.9422 30.6579 30.9833L35.0239 22.7035C34.1667 23.2463 33.3537 23.5166 32.5857 23.5166H23.9107V21.8909C23.9107 21.7528 23.8728 21.6828 23.7973 21.6828C23.7338 21.746 23.6328 21.8527 23.4947 22.0042L19.885 28.28L24.1564 34.7454C24.194 34.8209 24.2443 34.8585 24.3075 34.8585C24.4588 34.8585 24.5343 34.7641 24.5343 34.575V32.4199ZM29.335 22.893H32.5857C33.3794 22.893 34.1545 22.6158 34.9102 22.0611C35.8177 21.4062 36.2711 20.5867 36.2711 19.6037C36.2711 18.9608 36.0379 18.2614 35.572 17.5053L31.5464 10.9647L24.6101 15.3124L29.335 22.8926" fill="white"/>
</svg>
