<svg width="22" height="21" viewBox="0 0 22 21" fill="none" xmlns="http://www.w3.org/2000/svg">
<path d="M19.9009 8.85L20.4909 18.74C20.5109 19.01 20.3809 19.19 20.3109 19.27C20.2309 19.36 20.0609 19.5 19.7809 19.5H17.0509L19.2109 8.85H19.9009ZM21.0009 5L20.9909 5.02C21.0109 5.26 20.9909 5.51 20.9309 5.76L13.5609 19.29C13.3209 20.3 12.4209 21 11.3809 21H19.7809C21.0709 21 22.0909 19.91 21.9909 18.62L21.0009 5Z" fill="#292D32"/>
<path d="M10.4502 1.24136C10.5502 0.841365 10.3002 0.431365 9.90023 0.331365C9.50023 0.241365 9.09023 0.481365 8.99023 0.881365L8.49023 2.95136H10.0302L10.4502 1.24136Z" fill="#292D32"/>
<path d="M17.0509 1.20859C17.1409 0.798589 16.8809 0.408589 16.4709 0.318589C16.0709 0.228589 15.6709 0.488589 15.5809 0.898589L15.1309 2.96859H16.6709L17.0509 1.20859Z" fill="#292D32"/>
<path d="M20.8198 4.33141C20.4898 3.53141 19.7098 2.96141 18.7498 2.96141H16.6698L16.1098 5.55141C16.0298 5.90141 15.7198 6.14141 15.3798 6.14141C15.3298 6.14141 15.2698 6.14141 15.2198 6.12141C14.8198 6.03141 14.5598 5.63141 14.6398 5.23141L15.1298 2.95141H10.0298L9.39975 5.55141C9.31975 5.89141 9.00976 6.12141 8.66975 6.12141C8.60975 6.12141 8.54976 6.11141 8.48975 6.10141C8.08976 6.00141 7.83975 5.60141 7.93975 5.19141L8.47975 2.94141H6.44975C5.46975 2.94141 4.59975 3.58141 4.30975 4.52141L0.0997545 18.0714C-0.340246 19.5214 0.729754 21.0014 2.23975 21.0014H15.3798C16.4198 21.0014 17.3198 20.3014 17.5598 19.2914L20.9298 5.76141C20.9898 5.51141 21.0098 5.26141 20.9898 5.02141C20.9698 4.78141 20.9198 4.54141 20.8198 4.33141ZM13.6998 15.7514H5.69975C5.28975 15.7514 4.94975 15.4114 4.94975 15.0014C4.94975 14.5914 5.28975 14.2514 5.69975 14.2514H13.6998C14.1098 14.2514 14.4498 14.5914 14.4498 15.0014C14.4498 15.4114 14.1098 15.7514 13.6998 15.7514ZM14.6998 11.7514H6.69975C6.28975 11.7514 5.94975 11.4114 5.94975 11.0014C5.94975 10.5914 6.28975 10.2514 6.69975 10.2514H14.6998C15.1098 10.2514 15.4498 10.5914 15.4498 11.0014C15.4498 11.4114 15.1098 11.7514 14.6998 11.7514Z" fill="#292D32"/>
</svg>
