<svg width="38" height="38" viewBox="0 0 38 38" fill="none" xmlns="http://www.w3.org/2000/svg">
<path d="M24.0982 10.3708H9.1515C8.70817 10.3708 8.2965 10.3867 7.9165 10.4025C4.164 10.6242 3.1665 12.0017 3.1665 16.2767V17.195C3.1665 18.0658 3.879 18.7783 4.74984 18.7783H28.4998C29.3707 18.7783 30.0832 18.0658 30.0832 17.195V16.2767C30.0832 11.5583 28.8798 10.3708 24.0982 10.3708Z" fill="#298091"/>
<path d="M4.74984 21.1533C3.879 21.1533 3.1665 21.8658 3.1665 22.7367V27.3442C3.1665 32.0625 4.36984 33.25 9.1515 33.25H24.0982C28.8007 33.25 30.0357 32.11 30.0832 27.5975V22.7367C30.0832 21.8658 29.3707 21.1533 28.4998 21.1533H4.74984ZM11.0198 29.3867H8.31234C7.66317 29.3867 7.12484 28.8483 7.12484 28.1992C7.12484 27.55 7.66317 27.0117 8.31234 27.0117H11.0357C11.6848 27.0117 12.2232 27.55 12.2232 28.1992C12.2232 28.8483 11.6848 29.3867 11.0198 29.3867ZM19.8707 29.3867H14.424C13.7748 29.3867 13.2365 28.8483 13.2365 28.1992C13.2365 27.55 13.7748 27.0117 14.424 27.0117H19.8707C20.5198 27.0117 21.0582 27.55 21.0582 28.1992C21.0582 28.8483 20.5357 29.3867 19.8707 29.3867Z" fill="#298091"/>
<path d="M34.8335 21.1058V12.8092C34.8335 7.85335 31.9994 5.70001 27.7244 5.70001H13.5852C12.3819 5.70001 11.3052 5.87418 10.3552 6.23835C9.61104 6.50751 8.94604 6.90335 8.40771 7.42585C8.12271 7.69501 8.34438 8.13835 8.75605 8.13835H25.9669C29.5294 8.13835 32.411 11.02 32.411 14.5825V25.935C32.411 26.3308 32.8385 26.5525 33.1235 26.2675C34.216 25.1117 34.8335 23.4175 34.8335 21.1058Z" fill="#298091"/>
</svg>
